<svg xmlns="http://www.w3.org/2000/svg" version="1.1" xmlns:xlink="http://www.w3.org/1999/xlink" xmlns:svgjs="http://svgjs.dev/svgjs" width="1440" height="560" preserveAspectRatio="none" viewBox="0 0 1440 560"><g mask="url(&quot;#SvgjsMask1006&quot;)" fill="none"><path d="M1664.4 540.23C1533.42 532.17 1471.43 308.72 1203.94 288.23 936.45 267.74 880.13 2.09 743.48-10.63" stroke="rgba(51,121,194,0.58)" stroke-width="2"></path><path d="M1563.34 244.12C1425.82 248.03 1262.23 458.63 1053.53 451.32 844.82 444.01 917.95-1.05 798.62-92" stroke="rgba(51,121,194,0.58)" stroke-width="2"></path><path d="M1596.22 277.9C1495.61 277.63 1398.07 207.9 1199.92 207.9 1001.77 207.9 1011.56 280.93 803.61 277.9 595.66 274.87 533.56-25.18 407.31-44.7" stroke="rgba(51,121,194,0.58)" stroke-width="2"></path><path d="M1714.36 251.99C1529.59 253.34 1280.81 435.91 997.33 431.19 713.86 426.47 785.28-38.83 638.82-107.55" stroke="rgba(51,121,194,0.58)" stroke-width="2"></path><path d="M1638.43 351.44C1513.81 348.67 1426.23 186.82 1171.03 177.84 915.83 168.86 834.59-53.51 703.63-60.24" stroke="rgba(51,121,194,0.58)" stroke-width="2"></path></g><defs><mask id="SvgjsMask1006"><rect width="1440" height="560" fill="#ffffff"></rect></mask></defs></svg>