<svg xmlns="http://www.w3.org/2000/svg" version="1.1" xmlns:xlink="http://www.w3.org/1999/xlink" xmlns:svgjs="http://svgjs.dev/svgjs" width="1440" height="560" preserveAspectRatio="none" viewBox="0 0 1440 560">
    <g mask="url(&quot;#SvgjsMask1084&quot;)" fill="none">
        <rect width="1440" height="560" x="0" y="0" fill="rgba(255, 255, 255, 1)"></rect>
        <path d="M -932.3212460226742,27 C -788.32,126 -500.32,484.8 -212.32124602267422,522 C 75.68,559.2 219.68,257 507.67875397732575,213 C 795.68,169 1041.21,327.4 1227.6787539773259,302 C 1414.14,276.6 1397.54,129.2 1440,86" stroke="rgba(104, 71, 244, 1)" stroke-width="2"></path>
        <path d="M -938.8181550760949,135 C -794.82,194.8 -506.82,410.2 -218.8181550760948,434 C 69.18,457.8 213.18,237.6 501.1818449239052,254 C 789.18,270.4 1033.42,555.2 1221.1818449239051,516 C 1408.95,476.8 1396.24,149.6 1440,58" stroke="rgba(104, 71, 244, 1)" stroke-width="2"></path>
        <path d="M -59.5630811839153,50 C 84.44,113 372.44,319.2 660.4369188160847,365 C 948.44,410.8 1092.44,264.6 1380.4369188160847,279 C 1668.44,293.4 2088.52,442.6 2100.4369188160845,437 C 2112.35,431.4 1572.09,288.2 1440,251" stroke="rgba(104, 71, 244, 1)" stroke-width="2"></path>
        <path d="M -1356.8262897305342,525 C -1212.83,428.8 -924.83,57.4 -636.8262897305342,44 C -348.83,30.6 -204.83,413.6 83.1737102694658,458 C 371.17,502.4 531.81,300 803.1737102694658,266 C 1074.54,232 1312.63,283.6 1440,288" stroke="rgba(104, 71, 244, 1)" stroke-width="2"></path>
    </g>
    <defs>
        <mask id="SvgjsMask1084">
            <rect width="1440" height="560" fill="#ffffff"></rect>
        </mask>
    </defs>
</svg>