<svg xmlns="http://www.w3.org/2000/svg" version="1.1" xmlns:xlink="http://www.w3.org/1999/xlink" xmlns:svgjs="http://svgjs.dev/svgjs" width="1440" height="560" preserveAspectRatio="none" viewBox="0 0 1440 560">
    <g mask="url(&quot;#SvgjsMask1049&quot;)" fill="none">
        <rect width="1440" height="560" x="0" y="0" fill="rgba(255, 255, 255, 1)"></rect>
        <path d="M -1318.2240759389776,441 C -1174.22,405.8 -886.22,273.8 -598.2240759389776,265 C -310.22,256.2 -166.22,395.2 121.77592406102235,397 C 409.78,398.8 578.13,280.6 841.7759240610224,274 C 1105.42,267.4 1320.36,346 1440,364" stroke="rgba(104, 71, 244, 1)" stroke-width="2"></path>
        <path d="M -341.4544433377897,463 C -197.45,377 90.55,29.6 378.5455566622103,33 C 666.55,36.4 810.55,460.4 1098.5455566622104,480 C 1386.55,499.6 1750.25,132 1818.5455566622104,131 C 1886.84,130 1515.71,406.2 1440,475" stroke="rgba(104, 71, 244, 1)" stroke-width="2"></path>
        <path d="M -415.47714032350865,501 C -271.48,403 16.52,5.2 304.52285967649135,11 C 592.52,16.8 736.52,508.6 1024.5228596764914,530 C 1312.52,551.4 1661.43,132.4 1744.5228596764914,118 C 1827.62,103.6 1500.9,390 1440,458" stroke="rgba(104, 71, 244, 1)" stroke-width="2"></path>
        <path d="M -56.68925850815606,249 C 87.31,297.6 375.31,516.4 663.3107414918439,492 C 951.31,467.6 1095.31,122.2 1383.310741491844,127 C 1671.31,131.8 2091.97,507.8 2103.310741491844,516 C 2114.65,524.2 1572.66,237.6 1440,168" stroke="rgba(104, 71, 244, 1)" stroke-width="2"></path>
        <path d="M -906.2563412085821,553 C -762.26,478.2 -474.26,193.8 -186.25634120858209,179 C 101.74,164.2 245.74,507.4 533.7436587914179,479 C 821.74,450.6 1072.49,58.6 1253.7436587914178,37 C 1434.99,15.4 1402.75,304.2 1440,371" stroke="rgba(104, 71, 244, 1)" stroke-width="2"></path>
        <path d="M -576.0966402424882,19 C -432.1,80 -144.1,301 143.90335975751182,324 C 431.9,347 575.9,140.4 863.9033597575118,134 C 1151.9,127.6 1468.68,274.8 1583.903359757512,292 C 1699.12,309.2 1468.78,234.4 1440,220" stroke="rgba(104, 71, 244, 1)" stroke-width="2"></path>
        <path d="M -644.5271611474202,464 C -500.53,406.4 -212.53,170 75.47283885257983,176 C 363.47,182 507.47,481 795.4728388525798,494 C 1083.47,507 1386.57,273 1515.4728388525798,241 C 1644.38,209 1455.09,315.4 1440,334" stroke="rgba(104, 71, 244, 1)" stroke-width="2"></path>
        <path d="M -911.8841159814874,42 C -767.88,108.8 -479.88,358.4 -191.88411598148744,376 C 96.12,393.6 240.12,123.6 528.1158840185126,130 C 816.12,136.4 1065.74,401 1248.1158840185126,408 C 1430.49,415 1401.62,213.6 1440,165" stroke="rgba(104, 71, 244, 1)" stroke-width="2"></path>
        <path d="M -218.40566549980554,345 C -74.41,297.6 213.59,116 501.59433450019446,108 C 789.59,100 933.59,290.2 1221.5943345001945,305 C 1509.59,319.8 1897.91,140.2 1941.5943345001945,182 C 1985.28,223.8 1540.32,447.6 1440,514" stroke="rgba(104, 71, 244, 1)" stroke-width="2"></path>
    </g>
    <defs>
        <mask id="SvgjsMask1049">
            <rect width="1440" height="560" fill="#ffffff"></rect>
        </mask>
    </defs>
</svg>